<svg width="1448" height="483" viewBox="0 0 1448 483" fill="none" xmlns="http://www.w3.org/2000/svg">
<circle cx="128.495" cy="215.264" r="128.495" fill="black"/>
<path d="M55.9069 59.2447H35.4789L13.0037 73.2194V92.2676L33.3872 79.8061H33.9212V150.392H55.9069V59.2447Z" fill="#58A55C"/>
<path d="M95.4453 189.57H102.5V208.596H107.315V189.57H114.37V185.554H95.4453V189.57ZM115.602 208.596H120.395V198.819C120.395 196.692 121.948 195.23 124.063 195.23C124.727 195.23 125.638 195.342 126.088 195.489V191.236C125.661 191.134 125.064 191.067 124.581 191.067C122.645 191.067 121.059 192.192 120.429 194.33H120.249V191.314H115.602V208.596ZM128.566 208.596H133.36V191.314H128.566V208.596ZM130.974 189.087C132.403 189.087 133.573 187.995 133.573 186.656C133.573 185.329 132.403 184.237 130.974 184.237C129.557 184.237 128.386 185.329 128.386 186.656C128.386 187.995 129.557 189.087 130.974 189.087ZM137.199 215.077H141.992V205.829H142.138C142.802 207.269 144.254 208.878 147.044 208.878C150.982 208.878 154.054 205.761 154.054 199.978C154.054 194.037 150.847 191.089 147.055 191.089C144.164 191.089 142.78 192.811 142.138 194.217H141.925V191.314H137.199V215.077ZM141.891 199.955C141.891 196.872 143.196 194.903 145.525 194.903C147.899 194.903 149.159 196.962 149.159 199.955C149.159 202.971 147.877 205.063 145.525 205.063C143.218 205.063 141.891 203.038 141.891 199.955ZM71.0749 246.596H75.9467V239.125H80.0422C85.3416 239.125 88.4245 235.964 88.4245 231.362C88.4245 226.783 85.3979 223.554 80.166 223.554H71.0749V246.596ZM75.9467 235.221V227.537H79.2321C82.045 227.537 83.4064 229.067 83.4064 231.362C83.4064 233.646 82.045 235.221 79.2546 235.221H75.9467ZM96.292 223.554H91.4989V246.596H96.292V223.554ZM105.06 246.923C107.614 246.923 109.268 245.809 110.111 244.2H110.246V246.596H114.792V234.94C114.792 230.822 111.304 229.089 107.456 229.089C103.316 229.089 100.593 231.07 99.929 234.22L104.362 234.58C104.688 233.432 105.712 232.588 107.434 232.588C109.065 232.588 109.999 233.41 109.999 234.827V234.895C109.999 236.009 108.818 236.155 105.813 236.448C102.393 236.763 99.3214 237.91 99.3214 241.77C99.3214 245.19 101.763 246.923 105.06 246.923ZM106.432 243.615C104.958 243.615 103.901 242.928 103.901 241.612C103.901 240.262 105.015 239.598 106.702 239.362C107.749 239.215 109.459 238.968 110.033 238.585V240.419C110.033 242.231 108.536 243.615 106.432 243.615ZM123.304 236.605C123.315 234.377 124.643 233.072 126.578 233.072C128.502 233.072 129.661 234.332 129.649 236.448V246.596H134.442V235.593C134.442 231.565 132.08 229.089 128.479 229.089C125.914 229.089 124.057 230.349 123.281 232.363H123.079V229.314H118.511V246.596H123.304V236.605ZM143.013 236.605C143.024 234.377 144.352 233.072 146.287 233.072C148.211 233.072 149.37 234.332 149.359 236.448V246.596H154.152V235.593C154.152 231.565 151.789 229.089 148.189 229.089C145.623 229.089 143.767 230.349 142.991 232.363H142.788V229.314H138.22V246.596H143.013V236.605ZM165.806 246.934C170.081 246.934 172.961 244.852 173.636 241.646L169.203 241.353C168.72 242.67 167.482 243.356 165.884 243.356C163.488 243.356 161.969 241.77 161.969 239.193V239.182H173.738V237.865C173.738 231.992 170.182 229.089 165.614 229.089C160.529 229.089 157.232 232.701 157.232 238.034C157.232 243.514 160.484 246.934 165.806 246.934ZM161.969 236.211C162.07 234.242 163.567 232.667 165.693 232.667C167.775 232.667 169.215 234.152 169.226 236.211H161.969ZM176.866 246.596H181.659V236.819C181.659 234.692 183.211 233.23 185.327 233.23C185.99 233.23 186.902 233.342 187.352 233.489V229.236C186.924 229.134 186.328 229.067 185.844 229.067C183.909 229.067 182.323 230.192 181.692 232.33H181.512V229.314H176.866V246.596Z" fill="white"/>
<path d="M25.3022 375.6H29.4827C28.9506 371.753 25.5587 369.045 21.1597 369.045C16.0196 369.045 12.0576 372.75 12.0576 379.059C12.0576 385.216 15.7631 389.035 21.2452 389.035C26.1573 389.035 29.6632 385.928 29.6632 380.807V378.356H21.5208V381.453H25.7013C25.6442 383.866 24.0006 385.396 21.2642 385.396C18.1764 385.396 16.2286 383.087 16.2286 379.021C16.2286 374.973 18.2524 372.684 21.2262 372.684C23.345 372.684 24.7796 373.776 25.3022 375.6ZM32.7535 388.769H36.8675V381.871H39.8698L43.5562 388.769H48.0978L43.9648 381.206C46.1786 380.256 47.4042 378.327 47.4042 375.667C47.4042 371.8 44.8484 369.311 40.4304 369.311H32.7535V388.769ZM36.8675 378.565V372.674H39.6418C42.0171 372.674 43.1667 373.729 43.1667 375.667C43.1667 377.596 42.0171 378.565 39.6608 378.565H36.8675ZM50.3116 388.769H63.4611V385.377H54.4255V380.731H62.7485V377.339H54.4255V372.703H63.4231V369.311H50.3116V388.769ZM70.0478 388.769L71.4919 384.332H78.5133L79.9574 388.769H84.366L77.6582 369.311H72.3565L65.6392 388.769H70.0478ZM72.5371 381.121L74.9313 373.757H75.0834L77.4777 381.121H72.5371ZM83.5631 372.703H89.5203V388.769H93.5868V372.703H99.544V369.311H83.5631V372.703ZM102.176 388.769H115.325V385.377H106.29V380.731H114.613V377.339H106.29V372.703H115.287V369.311H102.176V388.769ZM129.114 374.907H133.057C133 371.439 130.15 369.045 125.817 369.045C121.551 369.045 118.425 371.401 118.444 374.935C118.435 377.805 120.458 379.448 123.746 380.237L125.865 380.769C127.983 381.282 129.161 381.89 129.171 383.201C129.161 384.627 127.812 385.596 125.722 385.596C123.584 385.596 122.045 384.608 121.912 382.66H117.931C118.036 386.869 121.047 389.045 125.77 389.045C130.52 389.045 133.313 386.774 133.323 383.211C133.313 379.971 130.872 378.251 127.489 377.491L125.741 377.073C124.05 376.684 122.634 376.057 122.663 374.66C122.663 373.406 123.774 372.484 125.789 372.484C127.755 372.484 128.962 373.377 129.114 374.907ZM135.349 372.703H141.306V388.769H145.373V372.703H151.33V369.311H135.349V372.703ZM163.67 369.311H159.099L165.817 388.769H171.118L177.826 369.311H173.266L168.553 384.094H168.373L163.67 369.311ZM180.935 388.769L182.38 384.332H189.401L190.845 388.769H195.254L188.546 369.311H183.244L176.527 388.769H180.935ZM183.425 381.121L185.819 373.757H185.971L188.365 381.121H183.425ZM197.596 388.769H210.052V385.377H201.71V369.311H197.596V388.769ZM224.795 369.311V381.596C224.795 383.819 223.237 385.425 220.843 385.425C218.458 385.425 216.89 383.819 216.89 381.596V369.311H212.776V381.947C212.776 386.204 215.987 389.045 220.843 389.045C225.679 389.045 228.909 386.204 228.909 381.947V369.311H224.795ZM232.294 388.769H245.443V385.377H236.408V380.731H244.731V377.339H236.408V372.703H245.405V369.311H232.294V388.769Z" fill="black"/>
<path d="M412.853 376.137H417.033C416.501 372.289 413.109 369.581 408.71 369.581C403.57 369.581 399.608 373.287 399.608 379.595C399.608 385.752 403.314 389.572 408.796 389.572C413.708 389.572 417.214 386.465 417.214 381.344V378.892H409.071V381.99H413.252C413.195 384.403 411.551 385.933 408.815 385.933C405.727 385.933 403.779 383.624 403.779 379.557C403.779 375.51 405.803 373.22 408.777 373.22C410.896 373.22 412.33 374.313 412.853 376.137ZM420.304 389.306H424.418V382.408H427.421L431.107 389.306H435.649L431.516 381.743C433.729 380.793 434.955 378.864 434.955 376.204C434.955 372.337 432.399 369.847 427.981 369.847H420.304V389.306ZM424.418 379.101V373.211H427.193C429.568 373.211 430.717 374.265 430.717 376.204C430.717 378.132 429.568 379.101 427.212 379.101H424.418ZM437.862 389.306H451.012V385.914H441.976V381.268H450.299V377.876H441.976V373.239H450.974V369.847H437.862V389.306ZM457.598 389.306L459.043 384.869H466.064L467.508 389.306H471.917L465.209 369.847H459.907L453.19 389.306H457.598ZM460.088 381.657L462.482 374.294H462.634L465.028 381.657H460.088ZM471.114 373.239H477.071V389.306H481.138V373.239H487.095V369.847H471.114V373.239ZM489.727 389.306H502.876V385.914H493.841V381.268H502.164V377.876H493.841V373.239H502.838V369.847H489.727V389.306ZM516.665 375.443H520.608C520.551 371.976 517.7 369.581 513.368 369.581C509.102 369.581 505.976 371.938 505.995 375.472C505.985 378.341 508.009 379.985 511.296 380.774L513.415 381.306C515.534 381.819 516.712 382.427 516.722 383.738C516.712 385.163 515.363 386.132 513.273 386.132C511.135 386.132 509.596 385.144 509.463 383.196H505.482C505.586 387.405 508.598 389.581 513.32 389.581C518.071 389.581 520.864 387.31 520.874 383.747C520.864 380.508 518.422 378.788 515.04 378.028L513.292 377.61C511.601 377.22 510.185 376.593 510.213 375.196C510.213 373.942 511.325 373.021 513.339 373.021C515.306 373.021 516.513 373.914 516.665 375.443ZM522.9 373.239H528.857V389.306H532.923V373.239H538.881V369.847H522.9V373.239ZM551.22 369.847H546.65L553.367 389.306H558.669L565.377 369.847H560.816L556.104 384.631H555.923L551.22 369.847ZM568.486 389.306L569.93 384.869H576.952L578.396 389.306H582.804L576.097 369.847H570.795L564.078 389.306H568.486ZM570.975 381.657L573.37 374.294H573.522L575.916 381.657H570.975ZM585.146 389.306H597.602V385.914H589.26V369.847H585.146V389.306ZM612.346 369.847V382.132C612.346 384.356 610.788 385.961 608.393 385.961C606.008 385.961 604.441 384.356 604.441 382.132V369.847H600.327V382.484C600.327 386.74 603.538 389.581 608.393 389.581C613.229 389.581 616.46 386.74 616.46 382.484V369.847H612.346ZM619.844 389.306H632.994V385.914H623.958V381.268H632.281V377.876H623.958V373.239H632.956V369.847H619.844V389.306Z" fill="black"/>
<circle cx="516.046" cy="215.801" r="128.495" fill="black"/>
<path d="M394.271 146H461.741V128.242H424.802V127.664L435.705 117.606C455.466 100.382 460.628 91.6145 460.628 81.1558C460.628 64.7333 447.232 53.607 426.537 53.607C406.376 53.607 392.891 65.2229 392.936 83.7816H413.809C413.809 75.5481 418.882 70.786 426.448 70.786C433.881 70.786 439.266 75.3701 439.266 82.8915C439.266 89.7008 434.993 94.3294 427.516 101.05L394.271 130.156V146Z" fill="#58A55C"/>
<path d="M437.981 205.099H433.132V219.591H432.93L422.983 205.099H418.708V228.142H423.58V213.639H423.749L433.773 228.142H437.981V205.099ZM449.725 228.48C454.968 228.48 458.231 224.89 458.231 219.568C458.231 214.213 454.968 210.635 449.725 210.635C444.482 210.635 441.219 214.213 441.219 219.568C441.219 224.89 444.482 228.48 449.725 228.48ZM449.748 224.767C447.329 224.767 446.091 222.55 446.091 219.535C446.091 216.519 447.329 214.292 449.748 214.292C452.122 214.292 453.359 216.519 453.359 219.535C453.359 222.55 452.122 224.767 449.748 224.767ZM470.54 210.86H467.288V206.719H462.495V210.86H460.133V214.46H462.495V223.461C462.473 226.848 464.779 228.525 468.256 228.378C469.494 228.333 470.371 228.086 470.855 227.928L470.101 224.362C469.865 224.407 469.359 224.519 468.909 224.519C467.952 224.519 467.288 224.159 467.288 222.831V214.46H470.54V210.86ZM473.662 228.142H478.455V210.86H473.662V228.142ZM476.07 208.632C477.499 208.632 478.669 207.541 478.669 206.202C478.669 204.874 477.499 203.783 476.07 203.783C474.652 203.783 473.482 204.874 473.482 206.202C473.482 207.541 474.652 208.632 476.07 208.632ZM491.588 210.86H488.157V209.701C488.157 208.531 488.629 207.845 490.036 207.845C490.61 207.845 491.195 207.968 491.577 208.092L492.421 204.492C491.825 204.312 490.508 204.019 489.034 204.019C485.783 204.019 483.364 205.853 483.364 209.611V210.86H480.922V214.46H483.364V228.142H488.157V214.46H491.588V210.86ZM494.517 228.142H499.31V210.86H494.517V228.142ZM496.924 208.632C498.353 208.632 499.523 207.541 499.523 206.202C499.523 204.874 498.353 203.783 496.924 203.783C495.507 203.783 494.337 204.874 494.337 206.202C494.337 207.541 495.507 208.632 496.924 208.632ZM510.958 228.48C515.559 228.48 518.451 225.779 518.676 221.807H514.153C513.872 223.653 512.657 224.688 511.014 224.688C508.775 224.688 507.323 222.809 507.323 219.501C507.323 216.238 508.786 214.37 511.014 214.37C512.769 214.37 513.894 215.529 514.153 217.251H518.676C518.474 213.256 515.447 210.635 510.935 210.635C505.692 210.635 502.452 214.269 502.452 219.568C502.452 224.823 505.636 228.48 510.958 228.48ZM526.673 228.468C529.227 228.468 530.881 227.354 531.725 225.745H531.86V228.142H536.405V216.486C536.405 212.368 532.917 210.635 529.069 210.635C524.929 210.635 522.206 212.615 521.542 215.765L525.975 216.126C526.302 214.978 527.326 214.134 529.047 214.134C530.678 214.134 531.612 214.955 531.612 216.373V216.441C531.612 217.554 530.431 217.701 527.427 217.993C524.006 218.308 520.935 219.456 520.935 223.315C520.935 226.736 523.376 228.468 526.673 228.468ZM528.046 225.16C526.572 225.16 525.514 224.474 525.514 223.158C525.514 221.807 526.628 221.144 528.316 220.907C529.362 220.761 531.072 220.514 531.646 220.131V221.965C531.646 223.776 530.15 225.16 528.046 225.16ZM549.316 210.86H546.065V206.719H541.272V210.86H538.909V214.46H541.272V223.461C541.249 226.848 543.556 228.525 547.032 228.378C548.27 228.333 549.147 228.086 549.631 227.928L548.877 224.362C548.641 224.407 548.135 224.519 547.685 224.519C546.728 224.519 546.065 224.159 546.065 222.831V214.46H549.316V210.86ZM552.439 228.142H557.232V210.86H552.439V228.142ZM554.846 208.632C556.275 208.632 557.445 207.541 557.445 206.202C557.445 204.874 556.275 203.783 554.846 203.783C553.429 203.783 552.258 204.874 552.258 206.202C552.258 207.541 553.429 208.632 554.846 208.632ZM568.88 228.48C574.123 228.48 577.386 224.89 577.386 219.568C577.386 214.213 574.123 210.635 568.88 210.635C563.636 210.635 560.374 214.213 560.374 219.568C560.374 224.89 563.636 228.48 568.88 228.48ZM568.902 224.767C566.483 224.767 565.245 222.55 565.245 219.535C565.245 216.519 566.483 214.292 568.902 214.292C571.276 214.292 572.514 216.519 572.514 219.535C572.514 222.55 571.276 224.767 568.902 224.767ZM585.295 218.151C585.306 215.923 586.634 214.618 588.569 214.618C590.493 214.618 591.652 215.878 591.641 217.993V228.142H596.434V217.138C596.434 213.11 594.071 210.635 590.471 210.635C587.906 210.635 586.049 211.895 585.273 213.909H585.07V210.86H580.502V228.142H585.295V218.151ZM614.591 215.788C614.163 212.604 611.598 210.635 607.233 210.635C602.811 210.635 599.897 212.683 599.908 216.013C599.897 218.601 601.528 220.277 604.903 220.952L607.896 221.549C609.404 221.852 610.09 222.404 610.113 223.27C610.09 224.294 608.976 225.025 607.3 225.025C605.59 225.025 604.453 224.294 604.161 222.888L599.447 223.135C599.897 226.443 602.709 228.48 607.289 228.48C611.767 228.48 614.973 226.195 614.985 222.786C614.973 220.289 613.342 218.792 609.989 218.106L606.861 217.476C605.252 217.127 604.656 216.576 604.667 215.743C604.656 214.708 605.826 214.033 607.311 214.033C608.976 214.033 609.967 214.944 610.203 216.058L614.591 215.788Z" fill="white"/>
<circle cx="1318.59" cy="215.801" r="126.735" fill="white" stroke="black" stroke-width="3.52042"/>
<path d="M1195.71 130.868H1239.72V146H1260.77V130.868H1271.68V113.511H1260.77V54.8532H1233.05L1195.71 113.689V130.868ZM1240.17 113.511H1217.6V112.799L1239.46 78.1739H1240.17V113.511Z" fill="black"/>
<path d="M1247.96 186.785L1250.07 180.472H1259.7L1261.82 186.785H1266.77L1257.75 161.182H1252.02L1243.01 186.785H1247.96ZM1251.32 176.746L1254.78 166.433H1254.98L1258.45 176.746H1251.32ZM1270.14 186.785H1274.59V183.76H1274.86C1275.57 185.16 1277.06 187.123 1280.36 187.123C1284.88 187.123 1288.27 183.535 1288.27 177.209C1288.27 170.808 1284.78 167.333 1280.34 167.333C1276.96 167.333 1275.54 169.37 1274.86 170.758H1274.67V161.182H1270.14V186.785ZM1274.58 177.184C1274.58 173.458 1276.18 171.046 1279.09 171.046C1282.11 171.046 1283.66 173.608 1283.66 177.184C1283.66 180.784 1282.08 183.41 1279.09 183.41C1276.21 183.41 1274.58 180.909 1274.58 177.184ZM1292.12 186.785H1296.64V167.583H1292.12V186.785ZM1294.39 164.857C1295.83 164.857 1297.01 163.757 1297.01 162.407C1297.01 161.044 1295.83 159.944 1294.39 159.944C1292.94 159.944 1291.77 161.044 1291.77 162.407C1291.77 163.757 1292.94 164.857 1294.39 164.857ZM1305.82 161.182H1301.3V186.785H1305.82V161.182ZM1310.48 186.785H1315V167.583H1310.48V186.785ZM1312.75 164.857C1314.19 164.857 1315.36 163.757 1315.36 162.407C1315.36 161.044 1314.19 159.944 1312.75 159.944C1311.3 159.944 1310.13 161.044 1310.13 162.407C1310.13 163.757 1311.3 164.857 1312.75 164.857ZM1329.24 167.583H1325.46V162.982H1320.93V167.583H1318.21V171.083H1320.93V181.759C1320.91 185.372 1323.53 187.148 1326.93 187.048C1328.22 187.01 1329.11 186.76 1329.59 186.598L1328.83 183.06C1328.58 183.122 1328.07 183.235 1327.51 183.235C1326.37 183.235 1325.46 182.835 1325.46 181.009V171.083H1329.24V167.583ZM1335.84 193.986C1339.37 193.986 1341.41 192.173 1342.49 189.11L1350.21 167.608L1345.37 167.583L1340.93 182.084H1340.73L1336.3 167.583H1331.5L1338.47 187.185L1338.08 188.223C1337.24 190.41 1335.92 190.56 1333.94 189.985L1332.89 193.511C1333.5 193.761 1334.6 193.986 1335.84 193.986ZM1371.67 167.583H1367.88V162.982H1363.35V167.583H1360.63V171.083H1363.35V181.759C1363.33 185.372 1365.96 187.148 1369.36 187.048C1370.64 187.01 1371.53 186.76 1372.02 186.598L1371.26 183.06C1371.01 183.122 1370.49 183.235 1369.93 183.235C1368.79 183.235 1367.88 182.835 1367.88 181.009V171.083H1371.67V167.583ZM1383.62 187.16C1389.25 187.16 1392.82 183.197 1392.82 177.259C1392.82 171.308 1389.25 167.333 1383.62 167.333C1378 167.333 1374.42 171.308 1374.42 177.259C1374.42 183.197 1378 187.16 1383.62 187.16ZM1383.65 183.535C1380.53 183.535 1379.01 180.759 1379.01 177.246C1379.01 173.733 1380.53 170.921 1383.65 170.921C1386.71 170.921 1388.24 173.733 1388.24 177.246C1388.24 180.759 1386.71 183.535 1383.65 183.535ZM1234.98 214.658C1234.35 211.408 1231.75 209.333 1227.25 209.333C1222.63 209.333 1219.48 211.608 1219.49 215.158C1219.48 217.959 1221.2 219.809 1224.89 220.572L1228.17 221.259C1229.93 221.647 1230.75 222.359 1230.75 223.447C1230.75 224.76 1229.33 225.747 1227.18 225.747C1225.1 225.747 1223.75 224.847 1223.36 223.122L1218.95 223.547C1219.51 227.072 1222.48 229.16 1227.19 229.16C1231.99 229.16 1235.38 226.672 1235.39 223.034C1235.38 220.297 1233.62 218.621 1229.99 217.834L1226.72 217.134C1224.76 216.696 1223.99 216.021 1224 214.908C1223.99 213.608 1225.43 212.708 1227.32 212.708C1229.4 212.708 1230.5 213.846 1230.85 215.108L1234.98 214.658ZM1243.65 217.534C1243.65 214.758 1245.37 213.158 1247.8 213.158C1250.17 213.158 1251.57 214.671 1251.57 217.259V228.785H1256.1V216.559C1256.1 211.921 1253.47 209.333 1249.49 209.333C1246.54 209.333 1244.66 210.67 1243.77 212.846H1243.55V203.182H1239.12V228.785H1243.65V217.534ZM1266.24 229.173C1269.25 229.173 1271.05 227.76 1271.88 226.147H1272.03V228.785H1276.38V215.934C1276.38 210.858 1272.24 209.333 1268.58 209.333C1264.54 209.333 1261.44 211.133 1260.44 214.633L1264.66 215.233C1265.11 213.921 1266.39 212.796 1268.6 212.796C1270.7 212.796 1271.85 213.871 1271.85 215.758V215.833C1271.85 217.134 1270.49 217.196 1267.1 217.559C1263.38 217.959 1259.81 219.071 1259.81 223.397C1259.81 227.172 1262.58 229.173 1266.24 229.173ZM1267.41 225.847C1265.53 225.847 1264.18 224.985 1264.18 223.322C1264.18 221.584 1265.69 220.859 1267.71 220.572C1268.9 220.409 1271.28 220.109 1271.86 219.634V221.897C1271.86 224.034 1270.14 225.847 1267.41 225.847ZM1280.93 228.785H1285.45V217.496C1285.45 215.058 1287.29 213.333 1289.78 213.333C1290.54 213.333 1291.49 213.471 1291.88 213.596V209.433C1291.47 209.358 1290.75 209.308 1290.25 209.308C1288.05 209.308 1286.22 210.558 1285.52 212.783H1285.32V209.583H1280.93V228.785ZM1302.6 229.16C1307.07 229.16 1310.15 226.972 1310.95 223.634L1306.72 223.159C1306.11 224.785 1304.61 225.635 1302.66 225.635C1299.73 225.635 1297.8 223.709 1297.76 220.422H1311.13V219.034C1311.13 212.296 1307.08 209.333 1302.36 209.333C1296.86 209.333 1293.27 213.371 1293.27 219.296C1293.27 225.322 1296.81 229.16 1302.6 229.16ZM1297.77 217.371C1297.91 214.921 1299.72 212.858 1302.42 212.858C1305.02 212.858 1306.77 214.758 1306.8 217.371H1297.77ZM1333.42 209.583H1329.43V208.07C1329.43 206.57 1330.06 205.732 1331.75 205.732C1332.46 205.732 1333.06 205.895 1333.43 206.007L1334.35 202.507C1333.76 202.307 1332.47 201.982 1330.91 201.982C1327.57 201.982 1324.91 203.895 1324.91 207.77V209.583H1322.07V213.083H1324.91V228.785H1329.43V213.083H1333.42V209.583ZM1349.2 220.709C1349.2 223.634 1347.12 225.085 1345.12 225.085C1342.94 225.085 1341.49 223.547 1341.49 221.109V209.583H1336.97V221.809C1336.97 226.422 1339.59 229.035 1343.37 229.035C1346.24 229.035 1348.27 227.522 1349.14 225.372H1349.34V228.785H1353.73V209.583H1349.2V220.709ZM1362.91 217.534C1362.91 214.758 1364.58 213.158 1366.97 213.158C1369.31 213.158 1370.71 214.696 1370.71 217.259V228.785H1375.24V216.559C1375.25 211.958 1372.62 209.333 1368.66 209.333C1365.78 209.333 1363.81 210.708 1362.93 212.846H1362.71V209.583H1358.38V228.785H1362.91V217.534ZM1386.96 229.123C1390.26 229.123 1391.75 227.16 1392.46 225.76H1392.74V228.785H1397.19V203.182H1392.65V212.758H1392.46C1391.78 211.37 1390.36 209.333 1386.97 209.333C1382.54 209.333 1379.05 212.808 1379.05 219.209C1379.05 225.535 1382.44 229.123 1386.96 229.123ZM1388.22 225.41C1385.24 225.41 1383.66 222.784 1383.66 219.184C1383.66 215.608 1385.21 213.046 1388.22 213.046C1391.14 213.046 1392.74 215.458 1392.74 219.184C1392.74 222.909 1391.11 225.41 1388.22 225.41ZM1417.19 214.658C1416.56 211.408 1413.96 209.333 1409.46 209.333C1404.84 209.333 1401.69 211.608 1401.7 215.158C1401.69 217.959 1403.41 219.809 1407.1 220.572L1410.37 221.259C1412.14 221.647 1412.96 222.359 1412.96 223.447C1412.96 224.76 1411.54 225.747 1409.39 225.747C1407.31 225.747 1405.96 224.847 1405.57 223.122L1401.16 223.547C1401.72 227.072 1404.69 229.16 1409.4 229.16C1414.2 229.16 1417.59 226.672 1417.6 223.034C1417.59 220.297 1415.83 218.621 1412.2 217.834L1408.92 217.134C1406.97 216.696 1406.2 216.021 1406.21 214.908C1406.2 213.608 1407.64 212.708 1409.52 212.708C1411.61 212.708 1412.71 213.846 1413.06 215.108L1417.19 214.658ZM1226.19 251.583H1222.41V246.982H1217.88V251.583H1215.15V255.083H1217.88V265.759C1217.85 269.372 1220.48 271.148 1223.88 271.048C1225.17 271.01 1226.06 270.76 1226.54 270.598L1225.78 267.06C1225.53 267.122 1225.02 267.235 1224.46 267.235C1223.32 267.235 1222.41 266.835 1222.41 265.009V255.083H1226.19V251.583ZM1234.92 259.534C1234.92 256.758 1236.64 255.158 1239.07 255.158C1241.44 255.158 1242.84 256.671 1242.84 259.259V270.785H1247.37V258.559C1247.37 253.921 1244.74 251.333 1240.75 251.333C1237.8 251.333 1235.93 252.67 1235.04 254.846H1234.82V245.182H1230.39V270.785H1234.92V259.534ZM1251.98 270.785H1256.51V259.496C1256.51 257.058 1258.34 255.333 1260.83 255.333C1261.59 255.333 1262.54 255.471 1262.93 255.596V251.433C1262.52 251.358 1261.81 251.308 1261.31 251.308C1259.11 251.308 1257.27 252.558 1256.57 254.783H1256.37V251.583H1251.98V270.785ZM1273.52 271.16C1279.15 271.16 1282.72 267.197 1282.72 261.259C1282.72 255.308 1279.15 251.333 1273.52 251.333C1267.9 251.333 1264.32 255.308 1264.32 261.259C1264.32 267.197 1267.9 271.16 1273.52 271.16ZM1273.55 267.535C1270.44 267.535 1268.91 264.759 1268.91 261.246C1268.91 257.733 1270.44 254.921 1273.55 254.921C1276.61 254.921 1278.14 257.733 1278.14 261.246C1278.14 264.759 1276.61 267.535 1273.55 267.535ZM1298.8 262.709C1298.8 265.634 1296.72 267.085 1294.72 267.085C1292.54 267.085 1291.09 265.547 1291.09 263.109V251.583H1286.57V263.809C1286.57 268.422 1289.19 271.035 1292.97 271.035C1295.84 271.035 1297.87 269.522 1298.74 267.372H1298.94V270.785H1303.33V251.583H1298.8V262.709ZM1316.34 278.386C1321.52 278.386 1325.35 276.011 1325.35 271.098V251.583H1320.89V254.758H1320.64C1319.95 253.37 1318.51 251.333 1315.12 251.333C1310.68 251.333 1307.2 254.808 1307.2 261.121C1307.2 267.385 1310.68 270.51 1315.11 270.51C1318.4 270.51 1319.94 268.747 1320.64 267.335H1320.86V270.973C1320.86 273.798 1318.99 274.961 1316.41 274.961C1313.68 274.961 1312.48 273.673 1311.93 272.548L1307.86 273.535C1308.68 276.223 1311.45 278.386 1316.34 278.386ZM1316.37 266.96C1313.38 266.96 1311.81 264.634 1311.81 261.096C1311.81 257.608 1313.36 255.046 1316.37 255.046C1319.29 255.046 1320.89 257.458 1320.89 261.096C1320.89 264.759 1319.26 266.96 1316.37 266.96ZM1334.51 259.534C1334.51 256.758 1336.24 255.158 1338.66 255.158C1341.04 255.158 1342.44 256.671 1342.44 259.259V270.785H1346.96V258.559C1346.96 253.921 1344.34 251.333 1340.35 251.333C1337.4 251.333 1335.52 252.67 1334.64 254.846H1334.41V245.182H1329.99V270.785H1334.51V259.534ZM1365.83 271.173C1368.85 271.173 1370.65 269.76 1371.47 268.147H1371.62V270.785H1375.97V257.934C1375.97 252.858 1371.84 251.333 1368.17 251.333C1364.13 251.333 1361.03 253.133 1360.03 256.633L1364.26 257.233C1364.71 255.921 1365.98 254.796 1368.2 254.796C1370.3 254.796 1371.45 255.871 1371.45 257.758V257.833C1371.45 259.134 1370.09 259.196 1366.7 259.559C1362.97 259.959 1359.41 261.071 1359.41 265.397C1359.41 269.172 1362.17 271.173 1365.83 271.173ZM1367.01 267.847C1365.12 267.847 1363.77 266.985 1363.77 265.322C1363.77 263.584 1365.28 262.859 1367.31 262.572C1368.5 262.409 1370.87 262.109 1371.46 261.634V263.897C1371.46 266.034 1369.74 267.847 1367.01 267.847ZM1380.52 277.986H1385.05V267.76H1385.24C1385.95 269.16 1387.44 271.123 1390.74 271.123C1395.26 271.123 1398.65 267.535 1398.65 261.209C1398.65 254.808 1395.16 251.333 1390.73 251.333C1387.34 251.333 1385.92 253.37 1385.24 254.758H1384.97V251.583H1380.52V277.986ZM1384.96 261.184C1384.96 257.458 1386.56 255.046 1389.48 255.046C1392.49 255.046 1394.04 257.608 1394.04 261.184C1394.04 264.784 1392.46 267.41 1389.48 267.41C1386.59 267.41 1384.96 264.909 1384.96 261.184ZM1402.53 277.986H1407.05V267.76H1407.24C1407.95 269.16 1409.44 271.123 1412.74 271.123C1417.27 271.123 1420.65 267.535 1420.65 261.209C1420.65 254.808 1417.17 251.333 1412.73 251.333C1409.34 251.333 1407.93 253.37 1407.24 254.758H1406.98V251.583H1402.53V277.986ZM1406.96 261.184C1406.96 257.458 1408.56 255.046 1411.48 255.046C1414.49 255.046 1416.04 257.608 1416.04 261.184C1416.04 264.784 1414.47 267.41 1411.48 267.41C1408.59 267.41 1406.96 264.909 1406.96 261.184Z" fill="black"/>
<circle cx="920.065" cy="215.801" r="126.735" fill="white" stroke="black" stroke-width="3.52042"/>
<path d="M821.732 167.079H817.153L825.265 190.122H830.418L838.542 167.079H833.951L827.966 185.216H827.729L821.732 167.079ZM841.397 190.122H845.47V172.84H841.397V190.122ZM843.445 170.387C844.739 170.387 845.796 169.397 845.796 168.182C845.796 166.955 844.739 165.965 843.445 165.965C842.14 165.965 841.082 166.955 841.082 168.182C841.082 169.397 842.14 170.387 843.445 170.387ZM857.309 190.459C861.337 190.459 864.105 188.49 864.825 185.486L861.022 185.059C860.471 186.521 859.121 187.286 857.365 187.286C854.733 187.286 852.989 185.554 852.955 182.595H864.994V181.346C864.994 175.281 861.348 172.615 857.095 172.615C852.145 172.615 848.916 176.249 848.916 181.582C848.916 187.005 852.1 190.459 857.309 190.459ZM852.966 179.849C853.09 177.644 854.721 175.787 857.152 175.787C859.492 175.787 861.067 177.498 861.09 179.849H852.966ZM871.913 190.122H876.166L879.407 178.443H879.643L882.883 190.122H887.125L892.02 172.84H887.857L884.864 184.924H884.695L881.59 172.84H877.483L874.377 184.991H874.22L871.182 172.84H867.03L871.913 190.122ZM902.722 196.602H906.795V187.399H906.964C907.605 188.659 908.944 190.425 911.915 190.425C915.988 190.425 919.037 187.196 919.037 181.503C919.037 175.742 915.898 172.615 911.903 172.615C908.854 172.615 907.583 174.449 906.964 175.697H906.728V172.84H902.722V196.602ZM906.717 181.481C906.717 178.128 908.157 175.956 910.778 175.956C913.49 175.956 914.885 178.263 914.885 181.481C914.885 184.721 913.467 187.084 910.778 187.084C908.179 187.084 906.717 184.834 906.717 181.481ZM927.498 190.47C930.209 190.47 931.83 189.199 932.572 187.748H932.707V190.122H936.623V178.555C936.623 173.987 932.898 172.615 929.602 172.615C925.968 172.615 923.177 174.235 922.277 177.385L926.08 177.925C926.485 176.744 927.633 175.731 929.624 175.731C931.515 175.731 932.55 176.699 932.55 178.398V178.465C932.55 179.635 931.323 179.692 928.274 180.018C924.921 180.378 921.715 181.379 921.715 185.272C921.715 188.67 924.201 190.47 927.498 190.47ZM928.555 187.478C926.856 187.478 925.641 186.701 925.641 185.205C925.641 183.641 927.003 182.988 928.825 182.73C929.894 182.583 932.032 182.313 932.561 181.886V183.922C932.561 185.846 931.008 187.478 928.555 187.478ZM940.718 190.122H944.791V179.962C944.791 177.768 946.445 176.215 948.684 176.215C949.37 176.215 950.226 176.339 950.574 176.451V172.705C950.203 172.637 949.562 172.592 949.112 172.592C947.131 172.592 945.477 173.717 944.847 175.72H944.667V172.84H940.718V190.122ZM953.28 190.122H957.353V184.316L958.838 182.73L964.127 190.122H968.998L961.91 180.299L968.605 172.84H963.845L957.635 179.782H957.353V167.079H953.28V190.122ZM971.319 190.122H975.392V172.84H971.319V190.122ZM973.367 170.387C974.661 170.387 975.718 169.397 975.718 168.182C975.718 166.955 974.661 165.965 973.367 165.965C972.062 165.965 971.004 166.955 971.004 168.182C971.004 169.397 972.062 170.387 973.367 170.387ZM983.653 179.995C983.653 177.498 985.161 176.058 987.31 176.058C989.414 176.058 990.674 177.441 990.674 179.748V190.122H994.747V179.118C994.758 174.977 992.396 172.615 988.829 172.615C986.241 172.615 984.463 173.852 983.676 175.776H983.473V172.84H979.58V190.122H983.653V179.995ZM1006.4 196.962C1011.07 196.962 1014.52 194.825 1014.52 190.403V172.84H1010.5V175.697H1010.27C1009.66 174.449 1008.36 172.615 1005.31 172.615C1001.32 172.615 998.179 175.742 998.179 181.424C998.179 187.061 1001.32 189.874 1005.3 189.874C1008.26 189.874 1009.64 188.288 1010.27 187.016H1010.48V190.29C1010.48 192.833 1008.79 193.88 1006.47 193.88C1004.02 193.88 1002.94 192.721 1002.44 191.708L998.775 192.597C999.518 195.016 1002 196.962 1006.4 196.962ZM1006.44 186.679C1003.75 186.679 1002.33 184.586 1002.33 181.402C1002.33 178.263 1003.73 175.956 1006.44 175.956C1009.06 175.956 1010.5 178.128 1010.5 181.402C1010.5 184.699 1009.04 186.679 1006.44 186.679ZM822.855 228.47C825.566 228.47 827.187 227.199 827.929 225.748H828.064V228.122H831.98V216.555C831.98 211.987 828.255 210.615 824.959 210.615C821.325 210.615 818.534 212.235 817.634 215.385L821.437 215.925C821.842 214.744 822.99 213.731 824.981 213.731C826.871 213.731 827.907 214.699 827.907 216.398V216.465C827.907 217.635 826.68 217.692 823.631 218.018C820.278 218.378 817.072 219.379 817.072 223.272C817.072 226.67 819.558 228.47 822.855 228.47ZM823.912 225.478C822.213 225.478 820.998 224.701 820.998 223.205C820.998 221.641 822.36 220.988 824.182 220.73C825.251 220.583 827.389 220.313 827.918 219.886V221.922C827.918 223.846 826.365 225.478 823.912 225.478ZM850.893 210.84H846.561L842.578 223.677H842.398L838.427 210.84H834.084L840.238 228.122H844.739L850.893 210.84ZM858.19 228.47C860.901 228.47 862.521 227.199 863.264 225.748H863.399V228.122H867.314V216.555C867.314 211.987 863.59 210.615 860.294 210.615C856.659 210.615 853.869 212.235 852.969 215.385L856.772 215.925C857.177 214.744 858.325 213.731 860.316 213.731C862.206 213.731 863.241 214.699 863.241 216.398V216.465C863.241 217.635 862.015 217.692 858.966 218.018C855.613 218.378 852.406 219.379 852.406 223.272C852.406 226.67 854.893 228.47 858.19 228.47ZM859.247 225.478C857.548 225.478 856.333 224.701 856.333 223.205C856.333 221.641 857.695 220.988 859.517 220.73C860.586 220.583 862.724 220.313 863.253 219.886V221.922C863.253 223.846 861.7 225.478 859.247 225.478ZM871.41 228.122H875.483V210.84H871.41V228.122ZM873.458 208.387C874.752 208.387 875.809 207.397 875.809 206.182C875.809 204.955 874.752 203.965 873.458 203.965C872.152 203.965 871.095 204.955 871.095 206.182C871.095 207.397 872.152 208.387 873.458 208.387ZM883.744 205.079H879.671V228.122H883.744V205.079ZM892.906 228.47C895.617 228.47 897.237 227.199 897.98 225.748H898.115V228.122H902.03V216.555C902.03 211.987 898.306 210.615 895.01 210.615C891.375 210.615 888.585 212.235 887.685 215.385L891.488 215.925C891.893 214.744 893.041 213.731 895.032 213.731C896.922 213.731 897.957 214.699 897.957 216.398V216.465C897.957 217.635 896.731 217.692 893.682 218.018C890.329 218.378 887.122 219.379 887.122 223.272C887.122 226.67 889.609 228.47 892.906 228.47ZM893.963 225.478C892.264 225.478 891.049 224.701 891.049 223.205C891.049 221.641 892.411 220.988 894.233 220.73C895.302 220.583 897.44 220.313 897.969 219.886V221.922C897.969 223.846 896.416 225.478 893.963 225.478ZM906.306 228.122H910.311V225.399H910.548C911.189 226.659 912.528 228.425 915.498 228.425C919.571 228.425 922.62 225.196 922.62 219.503C922.62 213.742 919.481 210.615 915.487 210.615C912.438 210.615 911.166 212.449 910.548 213.697H910.379V205.079H906.306V228.122ZM910.3 219.481C910.3 216.128 911.74 213.956 914.362 213.956C917.073 213.956 918.469 216.263 918.469 219.481C918.469 222.721 917.051 225.084 914.362 225.084C911.763 225.084 910.3 222.834 910.3 219.481ZM926.083 228.122H930.156V210.84H926.083V228.122ZM928.131 208.387C929.425 208.387 930.482 207.397 930.482 206.182C930.482 204.955 929.425 203.965 928.131 203.965C926.826 203.965 925.768 204.955 925.768 206.182C925.768 207.397 926.826 208.387 928.131 208.387ZM938.417 205.079H934.344V228.122H938.417V205.079ZM942.606 228.122H946.679V210.84H942.606V228.122ZM944.653 208.387C945.947 208.387 947.005 207.397 947.005 206.182C947.005 204.955 945.947 203.965 944.653 203.965C943.348 203.965 942.291 204.955 942.291 206.182C942.291 207.397 943.348 208.387 944.653 208.387ZM959.497 210.84H956.087V206.699H952.014V210.84H949.562V213.99H952.014V223.599C951.992 226.85 954.355 228.448 957.415 228.358C958.574 228.324 959.373 228.099 959.812 227.953L959.125 224.769C958.9 224.825 958.439 224.926 957.933 224.926C956.909 224.926 956.087 224.566 956.087 222.924V213.99H959.497V210.84ZM965.435 234.602C968.607 234.602 970.441 232.971 971.42 230.214L978.362 210.862L974.008 210.84L970.014 223.891H969.834L965.851 210.84H961.53L967.797 228.482L967.449 229.416C966.695 231.385 965.502 231.52 963.724 231.002L962.779 234.175C963.331 234.4 964.321 234.602 965.435 234.602ZM994.021 228.47C996.733 228.47 998.353 227.199 999.096 225.748H999.231V228.122H1003.15V216.555C1003.15 211.987 999.422 210.615 996.125 210.615C992.491 210.615 989.701 212.235 988.801 215.385L992.604 215.925C993.009 214.744 994.156 213.731 996.148 213.731C998.038 213.731 999.073 214.699 999.073 216.398V216.465C999.073 217.635 997.847 217.692 994.798 218.018C991.445 218.378 988.238 219.379 988.238 223.272C988.238 226.67 990.725 228.47 994.021 228.47ZM995.079 225.478C993.38 225.478 992.165 224.701 992.165 223.205C992.165 221.641 993.526 220.988 995.349 220.73C996.418 220.583 998.556 220.313 999.084 219.886V221.922C999.084 223.846 997.532 225.478 995.079 225.478ZM1015.87 210.84H1012.46V206.699H1008.39V210.84H1005.94V213.99H1008.39V223.599C1008.37 226.85 1010.73 228.448 1013.79 228.358C1014.95 228.324 1015.75 228.099 1016.19 227.953L1015.5 224.769C1015.28 224.825 1014.81 224.926 1014.31 224.926C1013.28 224.926 1012.46 224.566 1012.46 222.924V213.99H1015.87V210.84ZM874.224 253.408C873.662 250.482 871.321 248.615 867.271 248.615C863.108 248.615 860.272 250.662 860.284 253.858C860.272 256.378 861.825 258.043 865.144 258.73L868.092 259.348C869.679 259.697 870.421 260.338 870.421 261.317C870.421 262.499 869.139 263.388 867.203 263.388C865.336 263.388 864.12 262.578 863.772 261.025L859.8 261.407C860.306 264.58 862.973 266.459 867.215 266.459C871.535 266.459 874.584 264.22 874.595 260.946C874.584 258.482 872.998 256.974 869.735 256.266L866.787 255.635C865.032 255.242 864.334 254.634 864.345 253.633C864.334 252.463 865.628 251.652 867.327 251.652C869.206 251.652 870.196 252.676 870.511 253.813L874.224 253.408ZM886.584 248.84H883.175V244.699H879.102V248.84H876.649V251.99H879.102V261.599C879.079 264.85 881.442 266.448 884.502 266.358C885.661 266.324 886.46 266.099 886.899 265.953L886.212 262.769C885.987 262.825 885.526 262.926 885.02 262.926C883.996 262.926 883.175 262.566 883.175 260.924V251.99H886.584V248.84ZM894.963 266.47C897.675 266.47 899.295 265.199 900.038 263.748H900.173V266.122H904.088V254.555C904.088 249.987 900.364 248.615 897.067 248.615C893.433 248.615 890.643 250.235 889.743 253.385L893.545 253.925C893.951 252.744 895.098 251.731 897.09 251.731C898.98 251.731 900.015 252.699 900.015 254.398V254.465C900.015 255.635 898.789 255.692 895.74 256.018C892.387 256.378 889.18 257.379 889.18 261.272C889.18 264.67 891.667 266.47 894.963 266.47ZM896.021 263.478C894.322 263.478 893.107 262.701 893.107 261.205C893.107 259.641 894.468 258.988 896.291 258.73C897.36 258.583 899.497 258.313 900.026 257.886V259.922C900.026 261.846 898.474 263.478 896.021 263.478ZM916.813 248.84H913.404V244.699H909.331V248.84H906.878V251.99H909.331V261.599C909.309 264.85 911.671 266.448 914.732 266.358C915.891 266.324 916.689 266.099 917.128 265.953L916.442 262.769C916.217 262.825 915.756 262.926 915.249 262.926C914.225 262.926 913.404 262.566 913.404 260.924V251.99H916.813V248.84ZM920.22 266.122H924.293V248.84H920.22V266.122ZM922.267 246.387C923.561 246.387 924.619 245.397 924.619 244.182C924.619 242.955 923.561 241.965 922.267 241.965C920.962 241.965 919.905 242.955 919.905 244.182C919.905 245.397 920.962 246.387 922.267 246.387ZM936.019 266.459C941.082 266.459 944.3 262.893 944.3 257.548C944.3 252.193 941.082 248.615 936.019 248.615C930.956 248.615 927.738 252.193 927.738 257.548C927.738 262.893 930.956 266.459 936.019 266.459ZM936.042 263.196C933.24 263.196 931.868 260.699 931.868 257.537C931.868 254.375 933.24 251.844 936.042 251.844C938.798 251.844 940.171 254.375 940.171 257.537C940.171 260.699 938.798 263.196 936.042 263.196ZM951.83 255.995C951.83 253.498 953.338 252.058 955.487 252.058C957.591 252.058 958.851 253.441 958.851 255.748V266.122H962.924V255.118C962.935 250.977 960.573 248.615 957.006 248.615C954.418 248.615 952.64 249.852 951.853 251.776H951.65V248.84H947.757V266.122H951.83V255.995ZM980.724 253.408C980.161 250.482 977.821 248.615 973.77 248.615C969.607 248.615 966.772 250.662 966.783 253.858C966.772 256.378 968.325 258.043 971.644 258.73L974.592 259.348C976.178 259.697 976.921 260.338 976.921 261.317C976.921 262.499 975.638 263.388 973.703 263.388C971.835 263.388 970.62 262.578 970.271 261.025L966.299 261.407C966.806 264.58 969.472 266.459 973.714 266.459C978.035 266.459 981.084 264.22 981.095 260.946C981.084 258.482 979.497 256.974 976.234 256.266L973.287 255.635C971.531 255.242 970.834 254.634 970.845 253.633C970.834 252.463 972.128 251.652 973.827 251.652C975.706 251.652 976.696 252.676 977.011 253.813L980.724 253.408Z" fill="black"/>
<path d="M832.959 147.246C854.322 147.246 869.498 135.942 869.454 120.098C869.498 108.883 862.155 100.872 848.091 99.2249V98.5128C858.639 96.9997 866.116 89.9233 866.071 79.6871C866.116 64.8223 852.675 53.607 833.137 53.607C813.466 53.607 799.135 65.0004 798.957 81.2003H820.008C820.186 74.9695 825.794 70.786 833.137 70.786C840.125 70.786 844.887 75.0141 844.842 81.1113C844.887 87.431 839.279 91.7925 831.179 91.7925H822.322V107.458H831.179C840.392 107.458 846.4 111.998 846.311 118.407C846.4 124.86 840.881 129.355 833.048 129.355C825.26 129.355 819.519 125.216 819.296 119.208H797.132C797.31 135.675 812.131 147.246 832.959 147.246Z" fill="black"/>
<path d="M1248.18 389.306H1259.58V387.215H1250.53V369.847H1248.18V389.306ZM1278.89 379.576C1278.89 373.42 1275.27 369.581 1270.3 369.581C1265.32 369.581 1261.71 373.42 1261.71 379.576C1261.71 385.733 1265.32 389.572 1270.3 389.572C1275.27 389.572 1278.89 385.733 1278.89 379.576ZM1276.6 379.576C1276.6 384.631 1273.83 387.367 1270.3 387.367C1266.76 387.367 1263.99 384.631 1263.99 379.576C1263.99 374.522 1266.76 371.785 1270.3 371.785C1273.83 371.785 1276.6 374.522 1276.6 379.576ZM1286.38 389.306H1288.81L1293.11 373.8H1293.26L1297.55 389.306H1299.99L1305.31 369.847H1302.91L1298.85 385.695H1298.66L1294.51 369.847H1291.85L1287.71 385.695H1287.52L1283.46 369.847H1281.06L1286.38 389.306ZM1323.83 378.531H1315.31V380.622H1323.83V378.531ZM1335.6 389.306H1337.96V380.603H1348.33V389.306H1350.69V369.847H1348.33V378.512H1337.96V369.847H1335.6V389.306ZM1357.76 369.847H1355.4V389.306H1357.76V369.847ZM1375.79 375.928H1378.22C1377.5 372.166 1374.34 369.581 1370.24 369.581C1365.25 369.581 1361.73 373.42 1361.73 379.576C1361.73 385.733 1365.22 389.572 1370.39 389.572C1375.03 389.572 1378.33 386.484 1378.33 381.667V379.576H1370.92V381.667H1376.05C1375.99 385.163 1373.69 387.367 1370.39 387.367C1366.78 387.367 1364.01 384.631 1364.01 379.576C1364.01 374.522 1366.78 371.785 1370.24 371.785C1373.05 371.785 1374.96 373.372 1375.79 375.928ZM1382.37 389.306H1384.73V380.603H1395.1V389.306H1397.46V369.847H1395.1V378.512H1384.73V369.847H1382.37V389.306ZM1255.39 407.928C1254.67 403.937 1251.48 401.581 1247.56 401.581C1242.59 401.581 1238.98 405.42 1238.98 411.576C1238.98 417.733 1242.59 421.572 1247.56 421.572C1251.48 421.572 1254.67 419.215 1255.39 415.225H1253.04C1252.47 417.923 1250.15 419.367 1247.56 419.367C1244.03 419.367 1241.26 416.631 1241.26 411.576C1241.26 406.522 1244.03 403.785 1247.56 403.785C1250.15 403.785 1252.47 405.23 1253.04 407.928H1255.39ZM1275.62 411.576C1275.62 405.42 1272.01 401.581 1267.03 401.581C1262.05 401.581 1258.44 405.42 1258.44 411.576C1258.44 417.733 1262.05 421.572 1267.03 421.572C1272.01 421.572 1275.62 417.733 1275.62 411.576ZM1273.34 411.576C1273.34 416.631 1270.56 419.367 1267.03 419.367C1263.5 419.367 1260.72 416.631 1260.72 411.576C1260.72 406.522 1263.5 403.785 1267.03 403.785C1270.56 403.785 1273.34 406.522 1273.34 411.576ZM1279.58 401.847V421.306H1281.79V406.522H1281.98L1288.06 421.306H1290.18L1296.27 406.522H1296.46V421.306H1298.66V401.847H1295.85L1289.23 417.999H1289.01L1282.39 401.847H1279.58ZM1303.38 421.306H1305.74V414.199H1310C1314.53 414.199 1316.57 411.443 1316.57 408.004C1316.57 404.565 1314.53 401.847 1309.96 401.847H1303.38V421.306ZM1305.74 412.108V403.937H1309.88C1313.05 403.937 1314.25 405.667 1314.25 408.004C1314.25 410.341 1313.05 412.108 1309.92 412.108H1305.74ZM1320.37 421.306H1331.77V419.215H1322.72V401.847H1320.37V421.306ZM1335.42 421.306H1347.31V419.215H1337.77V412.603H1346.55V410.512H1337.77V403.937H1347.16V401.847H1335.42V421.306ZM1352.55 401.847H1349.77L1356.04 411.576L1349.77 421.306H1352.55L1357.56 413.363H1357.72L1362.73 421.306H1365.51L1359.39 411.576L1365.51 401.847H1362.73L1357.72 409.942H1357.56L1352.55 401.847ZM1370.93 401.847H1368.57V421.306H1370.93V401.847ZM1374.59 403.937H1380.71V421.306H1383.06V403.937H1389.18V401.847H1374.59V403.937ZM1391.15 401.847L1398.18 413.287V421.306H1400.54V413.287L1407.57 401.847H1404.87L1399.47 410.93H1399.24L1393.85 401.847H1391.15Z" fill="black"/>
<path d="M1238.29 476.612H1240.64V467.909H1251.02V476.612H1253.37V457.154H1251.02V465.819H1240.64V457.154H1238.29V476.612ZM1260.45 457.154H1258.09V476.612H1260.45V457.154ZM1278.47 463.235H1280.91C1280.18 459.472 1277.03 456.888 1272.92 456.888C1267.94 456.888 1264.41 460.726 1264.41 466.883C1264.41 473.04 1267.91 476.878 1273.08 476.878C1277.71 476.878 1281.02 473.79 1281.02 468.973V466.883H1273.61V468.973H1278.74C1278.67 472.47 1276.37 474.674 1273.08 474.674C1269.47 474.674 1266.69 471.938 1266.69 466.883C1266.69 461.828 1269.47 459.092 1272.92 459.092C1275.74 459.092 1277.65 460.679 1278.47 463.235ZM1285.05 476.612H1287.41V467.909H1297.79V476.612H1300.14V457.154H1297.79V465.819H1287.41V457.154H1285.05V476.612ZM1314.74 457.154H1312.38V476.612H1314.74V457.154ZM1319.47 457.154V476.612H1321.67V461.828H1321.86L1327.94 476.612H1330.07L1336.15 461.828H1336.34V476.612H1338.54V457.154H1335.73L1329.12 473.306H1328.89L1322.28 457.154H1319.47ZM1343.27 476.612H1345.62V469.505H1349.88C1354.41 469.505 1356.46 466.75 1356.46 463.311C1356.46 459.871 1354.41 457.154 1349.84 457.154H1343.27V476.612ZM1345.62 467.415V459.244H1349.77C1352.93 459.244 1354.14 460.973 1354.14 463.311C1354.14 465.648 1352.93 467.415 1349.8 467.415H1345.62ZM1359.06 476.612L1361.02 471.101H1368.89L1370.85 476.612H1373.32L1366.17 457.154H1363.74L1356.59 476.612H1359.06ZM1361.76 469.011L1364.88 460.232H1365.03L1368.15 469.011H1361.76ZM1391.09 463.235C1390.37 459.244 1387.18 456.888 1383.26 456.888C1378.28 456.888 1374.67 460.726 1374.67 466.883C1374.67 473.04 1378.28 476.878 1383.26 476.878C1387.18 476.878 1390.37 474.522 1391.09 470.531H1388.73C1388.16 473.23 1385.85 474.674 1383.26 474.674C1379.73 474.674 1376.95 471.938 1376.95 466.883C1376.95 461.828 1379.73 459.092 1383.26 459.092C1385.85 459.092 1388.16 460.536 1388.73 463.235H1391.09ZM1393.83 459.244H1399.95V476.612H1402.31V459.244H1408.43V457.154H1393.83V459.244Z" fill="black"/>
<line x1="1216.15" y1="438.994" x2="1421.04" y2="438.994" stroke="black" stroke-width="3.52042"/>
<path d="M800.284 389.306H802.64V380.603H813.016V389.306H815.372V369.847H813.016V378.512H802.64V369.847H800.284V389.306ZM822.446 369.847H820.089V389.306H822.446V369.847ZM840.472 375.928H842.904C842.182 372.166 839.027 369.581 834.923 369.581C829.935 369.581 826.41 373.42 826.41 379.576C826.41 385.733 829.906 389.572 835.075 389.572C839.711 389.572 843.018 386.484 843.018 381.667V379.576H835.607V381.667H840.738C840.671 385.163 838.372 387.367 835.075 387.367C831.464 387.367 828.69 384.631 828.69 379.576C828.69 374.522 831.464 371.786 834.923 371.786C837.735 371.786 839.645 373.372 840.472 375.928ZM847.053 389.306H849.41V380.603H859.785V389.306H862.141V369.847H859.785V378.512H849.41V369.847H847.053V389.306ZM890.041 375.928C889.319 371.938 886.127 369.581 882.212 369.581C877.234 369.581 873.623 373.42 873.623 379.576C873.623 385.733 877.234 389.572 882.212 389.572C886.127 389.572 889.319 387.215 890.041 383.225H887.685C887.115 385.923 884.797 387.367 882.212 387.367C878.678 387.367 875.904 384.631 875.904 379.576C875.904 374.522 878.678 371.786 882.212 371.786C884.797 371.786 887.115 373.23 887.685 375.928H890.041ZM910.267 379.576C910.267 373.42 906.656 369.581 901.678 369.581C896.699 369.581 893.089 373.42 893.089 379.576C893.089 385.733 896.699 389.572 901.678 389.572C906.656 389.572 910.267 385.733 910.267 379.576ZM907.987 379.576C907.987 384.631 905.212 387.367 901.678 387.367C898.143 387.367 895.369 384.631 895.369 379.576C895.369 374.522 898.143 371.786 901.678 371.786C905.212 371.786 907.987 374.522 907.987 379.576ZM914.229 369.847V389.306H916.433V374.522H916.623L922.704 389.306H924.832L930.913 374.522H931.103V389.306H933.307V369.847H930.495L923.882 385.999H923.654L917.041 369.847H914.229ZM938.032 389.306H940.388V382.199H944.644C949.176 382.199 951.219 379.443 951.219 376.004C951.219 372.565 949.176 369.847 944.606 369.847H938.032V389.306ZM940.388 380.109V371.938H944.53C947.694 371.938 948.901 373.667 948.901 376.004C948.901 378.341 947.694 380.109 944.568 380.109H940.388ZM955.015 389.306H966.416V387.215H957.371V369.847H955.015V389.306ZM970.065 389.306H981.96V387.215H972.421V380.603H981.2V378.512H972.421V371.938H981.808V369.847H970.065V389.306ZM987.195 369.847H984.421L990.692 379.576L984.421 389.306H987.195L992.212 381.363H992.364L997.38 389.306H1000.15L994.036 379.576L1000.15 369.847H997.38L992.364 377.942H992.212L987.195 369.847ZM1005.58 369.847H1003.22V389.306H1005.58V369.847ZM1009.24 371.938H1015.36V389.306H1017.71V371.938H1023.83V369.847H1009.24V371.938ZM1025.8 369.847L1032.83 381.287V389.306H1035.18V381.287L1042.21 369.847H1039.52L1034.12 378.93H1033.89L1028.49 369.847H1025.8Z" fill="black"/>
<path d="M835.531 450.561H837.888V441.858H848.263V450.561H850.619V431.103H848.263V439.768H837.888V431.103H835.531V450.561ZM857.693 431.103H855.337V450.561H857.693V431.103ZM875.719 437.183H878.151C877.429 433.421 874.275 430.837 870.17 430.837C865.182 430.837 861.657 434.675 861.657 440.832C861.657 446.988 865.154 450.827 870.322 450.827C874.959 450.827 878.265 447.739 878.265 442.922V440.832H870.854V442.922H875.985C875.918 446.418 873.619 448.623 870.322 448.623C866.712 448.623 863.937 445.886 863.937 440.832C863.937 435.777 866.712 433.041 870.17 433.041C872.982 433.041 874.892 434.627 875.719 437.183ZM882.301 450.561H884.657V441.858H895.032V450.561H897.389V431.103H895.032V439.768H884.657V431.103H882.301V450.561ZM911.987 431.103H909.631V450.561H911.987V431.103ZM916.711 431.103V450.561H918.916V435.777H919.106L925.186 450.561H927.315L933.395 435.777H933.585V450.561H935.79V431.103H932.977L926.365 447.254H926.137L919.524 431.103H916.711ZM940.514 450.561H942.87V443.454H947.127C951.659 443.454 953.702 440.699 953.702 437.259C953.702 433.82 951.659 431.103 947.089 431.103H940.514V450.561ZM942.87 441.364V433.193H947.013C950.177 433.193 951.383 434.922 951.383 437.259C951.383 439.597 950.177 441.364 947.051 441.364H942.87ZM956.31 450.561L958.267 445.05H966.134L968.091 450.561H970.561L963.417 431.103H960.984L953.839 450.561H956.31ZM959.008 442.96L962.124 434.181H962.276L965.393 442.96H959.008ZM988.336 437.183C987.614 433.193 984.421 430.837 980.507 430.837C975.528 430.837 971.918 434.675 971.918 440.832C971.918 446.988 975.528 450.827 980.507 450.827C984.421 450.827 987.614 448.471 988.336 444.48H985.979C985.409 447.178 983.091 448.623 980.507 448.623C976.972 448.623 974.198 445.886 974.198 440.832C974.198 435.777 976.972 433.041 980.507 433.041C983.091 433.041 985.409 434.485 985.979 437.183H988.336ZM991.079 433.193H997.198V450.561H999.554V433.193H1005.67V431.103H991.079V433.193Z" fill="black"/>
<line x1="817.62" y1="410.127" x2="1022.51" y2="410.127" stroke="black" stroke-width="3.52042"/>
</svg>
